<svg width="152" height="121" viewBox="0 0 152 121" fill="none" xmlns="http://www.w3.org/2000/svg">
<rect x="21.7144" y="25" width="16.7792" height="69.5847" fill="#FDFFFC"/>
<rect y="25" width="38.4935" height="12.3918" fill="#FDFFFC"/>
<path d="M90.7057 95H65.9557V25.1818H90.9102C97.933 25.1818 103.978 26.5795 109.047 29.375C114.115 32.1477 118.013 36.1364 120.74 41.3409C123.49 46.5455 124.865 52.7727 124.865 60.0227C124.865 67.2955 123.49 73.5455 120.74 78.7727C118.013 84 114.092 88.0114 108.978 90.8068C103.888 93.6023 97.7966 95 90.7057 95ZM80.717 82.3523H90.092C94.4557 82.3523 98.1261 81.5795 101.103 80.0341C104.103 78.4659 106.353 76.0455 107.853 72.7727C109.376 69.4773 110.138 65.2273 110.138 60.0227C110.138 54.8636 109.376 50.6477 107.853 47.375C106.353 44.1023 104.115 41.6932 101.138 40.1477C98.1602 38.6023 94.4898 37.8295 90.1261 37.8295H80.717V82.3523Z" fill="#FDFFFC"/>
</svg>
